<?xml version="1.0" standalone="no"?>
<!DOCTYPE svg PUBLIC "-//W3C//DTD SVG 20010904//EN"
 "http://www.w3.org/TR/2001/REC-SVG-20010904/DTD/svg10.dtd">
<svg version="1.0" xmlns="http://www.w3.org/2000/svg"
 width="1080.000000pt" height="1080.000000pt" viewBox="0 0 1080.000000 1080.000000"
 preserveAspectRatio="xMidYMid meet">

<g transform="translate(0.000000,1080.000000) scale(0.100000,-0.100000)"
fill="#000000" stroke="none">
<path d="M3680 5815 l0 -1065 75 0 75 0 0 1065 0 1065 -75 0 -75 0 0 -1065z"/>
<path d="M2804 5851 c-217 -35 -379 -183 -429 -393 -17 -74 -20 -225 -4 -300
55 -264 311 -435 596 -399 116 15 182 41 267 106 l46 35 0 -28 c0 -15 -5 -67
-10 -117 -27 -239 -102 -381 -237 -453 -58 -30 -139 -52 -193 -52 -29 0 -30
-2 -30 -46 l0 -47 88 6 c145 9 279 70 363 165 51 58 113 184 141 287 21 77 22
99 26 663 l3 582 -75 0 -76 0 0 -75 0 -75 -47 36 c-58 44 -103 67 -172 88 -66
19 -189 27 -257 17z m236 -119 c99 -48 190 -172 221 -302 42 -178 -17 -394
-136 -498 -74 -65 -109 -77 -230 -77 -92 0 -118 4 -157 22 -172 79 -268 328
-212 552 21 81 56 164 91 209 29 39 114 96 164 111 59 18 208 8 259 -17z"/>
<path d="M4495 5854 c-119 -19 -213 -64 -300 -145 -223 -209 -216 -633 14
-829 71 -61 161 -101 269 -118 86 -14 104 -14 186 0 103 17 182 51 244 103
l42 37 0 -76 0 -76 75 0 75 0 0 555 0 555 -75 0 -75 0 0 -76 0 -75 -42 34
c-52 42 -106 70 -177 91 -57 17 -185 27 -236 20z m233 -129 c64 -35 132 -105
165 -171 73 -146 75 -342 5 -491 -29 -63 -112 -149 -172 -181 -46 -25 -61 -27
-161 -27 -101 0 -114 2 -163 28 -105 55 -163 140 -203 294 -24 96 -24 160 0
255 28 108 71 187 131 241 76 68 134 88 250 84 83 -2 102 -6 148 -32z"/>
<path d="M5322 5523 c3 -335 4 -339 30 -410 64 -178 167 -283 327 -334 94 -30
268 -30 362 0 126 40 237 133 295 248 51 101 56 143 61 501 l5 332 -74 0 -75
0 -6 -322 c-6 -341 -12 -391 -58 -483 -32 -64 -112 -145 -174 -176 -43 -21
-64 -24 -155 -24 -91 0 -112 3 -155 25 -95 46 -183 161 -213 280 -10 39 -15
149 -19 378 l-6 322 -74 0 -75 0 4 -337z"/>
<path d="M6620 5305 l0 -555 74 0 74 0 4 348 c4 324 6 351 26 404 58 158 176
243 355 255 l77 6 0 49 0 50 -87 -7 c-156 -12 -254 -45 -334 -113 l-39 -34 0
76 0 76 -75 0 -75 0 0 -555z"/>
<path d="M7770 5849 c-122 -17 -225 -73 -309 -165 -90 -98 -134 -226 -134
-389 -1 -143 39 -263 119 -362 39 -48 148 -122 214 -146 111 -40 250 -44 370
-11 62 18 147 63 175 94 10 11 22 20 27 20 4 0 8 -31 8 -70 l0 -70 75 0 75 0
0 555 0 555 -75 0 -75 0 0 -76 0 -75 -43 35 c-56 46 -138 83 -224 101 -74 16
-119 17 -203 4z m238 -118 c145 -75 232 -234 232 -425 0 -154 -45 -273 -136
-362 -66 -64 -123 -87 -229 -92 -112 -5 -180 17 -255 85 -112 101 -170 300
-135 468 38 183 125 298 258 341 65 21 211 13 265 -15z"/>
<path d="M8603 4923 c9 -2 23 -2 30 0 6 3 -1 5 -18 5 -16 0 -22 -2 -12 -5z"/>
<path d="M8675 4895 c29 -28 33 -78 9 -115 l-16 -25 21 24 c27 30 27 81 0 115
-11 14 -24 26 -29 26 -5 0 2 -11 15 -25z"/>
<path d="M8535 4879 c-4 -6 -5 -12 -2 -15 2 -3 7 2 10 11 7 17 1 20 -8 4z"/>
<path d="M8594 4856 c-11 -28 1 -51 26 -53 25 -3 25 -3 3 7 -13 5 -23 16 -23
25 0 9 10 20 23 25 l22 9 -23 0 c-12 1 -25 -5 -28 -13z"/>
<path d="M8530 4801 c0 -9 49 -56 53 -50 1 2 -10 16 -25 31 -15 15 -28 23 -28
19z"/>
<path d="M8608 4743 c6 -2 18 -2 25 0 6 3 1 5 -13 5 -14 0 -19 -2 -12 -5z"/>
</g>
</svg>
